<svg width="67" height="37" viewBox="0 0 67 37" fill="none" xmlns="http://www.w3.org/2000/svg">
<path d="M66.1489 36.1888C59.5799 19.2307 53.094 13.4899 46.9366 8.58855C43.9409 6.22223 46.1398 3.22533 51.5081 1.75899C47.829 1.22908 43.3141 0.525463 37.5922 4.50034C31.0861 1.43796 6.3393 -2.5987 3.52862 14.9585L1.49962 17.6219C0.471276 20.795 1.64562 20.469 3.83068 19.3136C6.01575 18.1581 17.2545 15.2292 20.4225 16.9272C22.8895 22.8052 26.23 23.8348 34.2566 25.0671C31.923 23.7102 28.5825 22.6806 27.7833 17.6522C32.9741 17.5238 44.9969 21.6322 49.9825 26.5247C48.3387 22.4944 32.0288 9.6483 11.233 14.5143C10.5923 10.6589 18.4956 6.03082 27.6977 6.76969C36.5651 7.50605 45.0851 9.91393 51.2374 15.4848C57.6935 21.1844 62.789 28.2594 66.1489 36.1888Z" stroke="#5200FF" stroke-width="0.729167" stroke-linecap="round" stroke-linejoin="round"/>
</svg>
